{
	"asset":{
		"generator":"Khronos glTF Blender I/O v4.3.47",
		"version":"2.0"
	},
	"extensionsUsed":[
		"KHR_materials_emissive_strength"
	],
	"scene":0,
	"scenes":[
		{
			"name":"Scene",
			"nodes":[
				0
			]
		}
	],
	"nodes":[
		{
			"mesh":0,
			"name":"Plane"
		}
	],
	"materials":[
		{
			"doubleSided":true,
			"name":"base",
			"pbrMetallicRoughness":{
				"baseColorFactor":[
					1,
					0.8927949666976929,
					0.847518265247345,
					1
				],
				"metallicFactor":0,
				"roughnessFactor":0.5
			}
		},
		{
			"doubleSided":true,
			"name":"field1",
			"pbrMetallicRoughness":{
				"baseColorFactor":[
					0.05193521827459335,
					0.3508460223674774,
					0.017159488052129745,
					1
				],
				"metallicFactor":0,
				"roughnessFactor":0.5
			}
		},
		{
			"doubleSided":true,
			"name":"field2",
			"pbrMetallicRoughness":{
				"baseColorFactor":[
					0.44964826107025146,
					0.3613138198852539,
					0.00998067855834961,
					1
				],
				"metallicFactor":0,
				"roughnessFactor":0.5
			}
		},
		{
			"doubleSided":true,
			"name":"wall_barrier",
			"pbrMetallicRoughness":{
				"baseColorFactor":[
					0.17522740364074707,
					0.08299058675765991,
					0.4185023307800293,
					1
				],
				"metallicFactor":0,
				"roughnessFactor":0.5
			}
		},
		{
			"doubleSided":true,
			"name":"step1",
			"pbrMetallicRoughness":{
				"baseColorFactor":[
					0.3508460223674774,
					0.09142976254224777,
					0.03721883147954941,
					1
				],
				"metallicFactor":0,
				"roughnessFactor":0.5
			}
		},
		{
			"doubleSided":true,
			"name":"step2",
			"pbrMetallicRoughness":{
				"baseColorFactor":[
					0.2989094853401184,
					0.1727197766304016,
					0.06042554974555969,
					1
				],
				"metallicFactor":0,
				"roughnessFactor":0.5
			}
		},
		{
			"doubleSided":true,
			"emissiveFactor":[
				1,
				0.8746565580368042,
				0.0768299326300621
			],
			"extensions":{
				"KHR_materials_emissive_strength":{
					"emissiveStrength":1.5000001192092896
				}
			},
			"name":"pit",
			"pbrMetallicRoughness":{
				"baseColorFactor":[
					0,
					0,
					0,
					1
				]
			}
		}
	],
	"meshes":[
		{
			"name":"Plane",
			"primitives":[
				{
					"attributes":{
						"POSITION":0,
						"NORMAL":1,
						"TEXCOORD_0":2
					},
					"indices":3,
					"material":0
				},
				{
					"attributes":{
						"POSITION":4,
						"NORMAL":5,
						"TEXCOORD_0":6
					},
					"indices":7,
					"material":1
				},
				{
					"attributes":{
						"POSITION":8,
						"NORMAL":9,
						"TEXCOORD_0":10
					},
					"indices":11,
					"material":2
				},
				{
					"attributes":{
						"POSITION":12,
						"NORMAL":13,
						"TEXCOORD_0":14
					},
					"indices":15,
					"material":3
				},
				{
					"attributes":{
						"POSITION":16,
						"NORMAL":17,
						"TEXCOORD_0":18
					},
					"indices":19,
					"material":4
				},
				{
					"attributes":{
						"POSITION":20,
						"NORMAL":21,
						"TEXCOORD_0":22
					},
					"indices":23,
					"material":5
				},
				{
					"attributes":{
						"POSITION":24,
						"NORMAL":25,
						"TEXCOORD_0":26
					},
					"indices":27,
					"material":6
				}
			]
		}
	],
	"accessors":[
		{
			"bufferView":0,
			"componentType":5126,
			"count":163,
			"max":[
				30,
				11,
				30
			],
			"min":[
				-30,
				0,
				-30
			],
			"type":"VEC3"
		},
		{
			"bufferView":1,
			"componentType":5126,
			"count":163,
			"type":"VEC3"
		},
		{
			"bufferView":2,
			"componentType":5126,
			"count":163,
			"type":"VEC2"
		},
		{
			"bufferView":3,
			"componentType":5123,
			"count":318,
			"type":"SCALAR"
		},
		{
			"bufferView":4,
			"componentType":5126,
			"count":380,
			"max":[
				29,
				1,
				29
			],
			"min":[
				-29,
				1,
				-29
			],
			"type":"VEC3"
		},
		{
			"bufferView":5,
			"componentType":5126,
			"count":380,
			"type":"VEC3"
		},
		{
			"bufferView":6,
			"componentType":5126,
			"count":380,
			"type":"VEC2"
		},
		{
			"bufferView":7,
			"componentType":5123,
			"count":1026,
			"type":"SCALAR"
		},
		{
			"bufferView":8,
			"componentType":5126,
			"count":382,
			"max":[
				29,
				1,
				29
			],
			"min":[
				-29,
				1,
				-29
			],
			"type":"VEC3"
		},
		{
			"bufferView":9,
			"componentType":5126,
			"count":382,
			"type":"VEC3"
		},
		{
			"bufferView":10,
			"componentType":5126,
			"count":382,
			"type":"VEC2"
		},
		{
			"bufferView":11,
			"componentType":5123,
			"count":1002,
			"type":"SCALAR"
		},
		{
			"bufferView":12,
			"componentType":5126,
			"count":223,
			"max":[
				29,
				11,
				29
			],
			"min":[
				-29,
				0.5,
				-29
			],
			"type":"VEC3"
		},
		{
			"bufferView":13,
			"componentType":5126,
			"count":223,
			"type":"VEC3"
		},
		{
			"bufferView":14,
			"componentType":5126,
			"count":223,
			"type":"VEC2"
		},
		{
			"bufferView":15,
			"componentType":5123,
			"count":516,
			"type":"SCALAR"
		},
		{
			"bufferView":16,
			"componentType":5126,
			"count":112,
			"max":[
				29,
				5.5,
				-9.666666030883789
			],
			"min":[
				-29,
				1,
				-29
			],
			"type":"VEC3"
		},
		{
			"bufferView":17,
			"componentType":5126,
			"count":112,
			"type":"VEC3"
		},
		{
			"bufferView":18,
			"componentType":5126,
			"count":112,
			"type":"VEC2"
		},
		{
			"bufferView":19,
			"componentType":5123,
			"count":216,
			"type":"SCALAR"
		},
		{
			"bufferView":20,
			"componentType":5126,
			"count":120,
			"max":[
				29.971336364746094,
				7.422037601470947,
				-8.568733215332031
			],
			"min":[
				-26.238094329833984,
				1,
				-29.773605346679688
			],
			"type":"VEC3"
		},
		{
			"bufferView":21,
			"componentType":5126,
			"count":120,
			"type":"VEC3"
		},
		{
			"bufferView":22,
			"componentType":5126,
			"count":120,
			"type":"VEC2"
		},
		{
			"bufferView":23,
			"componentType":5123,
			"count":222,
			"type":"SCALAR"
		},
		{
			"bufferView":24,
			"componentType":5126,
			"count":70,
			"max":[
				1.526315689086914,
				0.5,
				-9.666666030883789
			],
			"min":[
				-9.666666030883789,
				0.5,
				-27.98245620727539
			],
			"type":"VEC3"
		},
		{
			"bufferView":25,
			"componentType":5126,
			"count":70,
			"type":"VEC3"
		},
		{
			"bufferView":26,
			"componentType":5126,
			"count":70,
			"type":"VEC2"
		},
		{
			"bufferView":27,
			"componentType":5123,
			"count":240,
			"type":"SCALAR"
		}
	],
	"bufferViews":[
		{
			"buffer":0,
			"byteLength":1956,
			"byteOffset":0,
			"target":34962
		},
		{
			"buffer":0,
			"byteLength":1956,
			"byteOffset":1956,
			"target":34962
		},
		{
			"buffer":0,
			"byteLength":1304,
			"byteOffset":3912,
			"target":34962
		},
		{
			"buffer":0,
			"byteLength":636,
			"byteOffset":5216,
			"target":34963
		},
		{
			"buffer":0,
			"byteLength":4560,
			"byteOffset":5852,
			"target":34962
		},
		{
			"buffer":0,
			"byteLength":4560,
			"byteOffset":10412,
			"target":34962
		},
		{
			"buffer":0,
			"byteLength":3040,
			"byteOffset":14972,
			"target":34962
		},
		{
			"buffer":0,
			"byteLength":2052,
			"byteOffset":18012,
			"target":34963
		},
		{
			"buffer":0,
			"byteLength":4584,
			"byteOffset":20064,
			"target":34962
		},
		{
			"buffer":0,
			"byteLength":4584,
			"byteOffset":24648,
			"target":34962
		},
		{
			"buffer":0,
			"byteLength":3056,
			"byteOffset":29232,
			"target":34962
		},
		{
			"buffer":0,
			"byteLength":2004,
			"byteOffset":32288,
			"target":34963
		},
		{
			"buffer":0,
			"byteLength":2676,
			"byteOffset":34292,
			"target":34962
		},
		{
			"buffer":0,
			"byteLength":2676,
			"byteOffset":36968,
			"target":34962
		},
		{
			"buffer":0,
			"byteLength":1784,
			"byteOffset":39644,
			"target":34962
		},
		{
			"buffer":0,
			"byteLength":1032,
			"byteOffset":41428,
			"target":34963
		},
		{
			"buffer":0,
			"byteLength":1344,
			"byteOffset":42460,
			"target":34962
		},
		{
			"buffer":0,
			"byteLength":1344,
			"byteOffset":43804,
			"target":34962
		},
		{
			"buffer":0,
			"byteLength":896,
			"byteOffset":45148,
			"target":34962
		},
		{
			"buffer":0,
			"byteLength":432,
			"byteOffset":46044,
			"target":34963
		},
		{
			"buffer":0,
			"byteLength":1440,
			"byteOffset":46476,
			"target":34962
		},
		{
			"buffer":0,
			"byteLength":1440,
			"byteOffset":47916,
			"target":34962
		},
		{
			"buffer":0,
			"byteLength":960,
			"byteOffset":49356,
			"target":34962
		},
		{
			"buffer":0,
			"byteLength":444,
			"byteOffset":50316,
			"target":34963
		},
		{
			"buffer":0,
			"byteLength":840,
			"byteOffset":50760,
			"target":34962
		},
		{
			"buffer":0,
			"byteLength":840,
			"byteOffset":51600,
			"target":34962
		},
		{
			"buffer":0,
			"byteLength":560,
			"byteOffset":52440,
			"target":34962
		},
		{
			"buffer":0,
			"byteLength":480,
			"byteOffset":53000,
			"target":34963
		}
	],
	"buffers":[
		{
			"byteLength":53480,
			"uri":"test_location.bin"
		}
	]
}
