{
	"asset":{
		"generator":"Khronos glTF Blender I/O v4.3.47",
		"version":"2.0"
	},
	"scene":0,
	"scenes":[
		{
			"name":"Scene",
			"nodes":[
				0
			]
		}
	],
	"nodes":[
		{
			"mesh":0,
			"name":"Cylinder",
			"rotation":[
				0.6935198903083801,
				-0.13794972002506256,
				-0.13794970512390137,
				0.6935199499130249
			],
			"translation":[
				-0.0005153417587280273,
				0,
				-0.03902323171496391
			]
		}
	],
	"materials":[
		{
			"doubleSided":true,
			"name":"metal",
			"pbrMetallicRoughness":{
				"baseColorFactor":[
					0,
					0,
					0,
					1
				],
				"metallicFactor":0.16727273166179657,
				"roughnessFactor":0.3181818127632141
			}
		},
		{
			"doubleSided":true,
			"emissiveFactor":[
				0.20334643125534058,
				0.3296595811843872,
				1
			],
			"name":"material1",
			"pbrMetallicRoughness":{
				"baseColorFactor":[
					0,
					0,
					0,
					1
				]
			}
		},
		{
			"doubleSided":true,
			"emissiveFactor":[
				1,
				0.34429168701171875,
				0.16308853030204773
			],
			"name":"material2",
			"pbrMetallicRoughness":{
				"baseColorFactor":[
					0,
					0,
					0,
					1
				]
			}
		}
	],
	"meshes":[
		{
			"name":"Cylinder",
			"primitives":[
				{
					"attributes":{
						"POSITION":0,
						"NORMAL":1,
						"TEXCOORD_0":2
					},
					"indices":3,
					"material":0
				},
				{
					"attributes":{
						"POSITION":4,
						"NORMAL":5,
						"TEXCOORD_0":6
					},
					"indices":7,
					"material":1
				},
				{
					"attributes":{
						"POSITION":8,
						"NORMAL":9,
						"TEXCOORD_0":10
					},
					"indices":11,
					"material":2
				}
			]
		}
	],
	"accessors":[
		{
			"bufferView":0,
			"componentType":5126,
			"count":533,
			"max":[
				0.23449000716209412,
				0.3335960805416107,
				0.4004807770252228
			],
			"min":[
				-0.10292817652225494,
				-0.9413142204284668,
				-0.16120964288711548
			],
			"type":"VEC3"
		},
		{
			"bufferView":1,
			"componentType":5126,
			"count":533,
			"type":"VEC3"
		},
		{
			"bufferView":2,
			"componentType":5126,
			"count":533,
			"type":"VEC2"
		},
		{
			"bufferView":3,
			"componentType":5123,
			"count":1038,
			"type":"SCALAR"
		},
		{
			"bufferView":4,
			"componentType":5126,
			"count":18,
			"max":[
				0.08479215204715729,
				-0.404311865568161,
				0.11075592786073685
			],
			"min":[
				-0.08006428927183151,
				-0.6883118748664856,
				-0.11271419376134872
			],
			"type":"VEC3"
		},
		{
			"bufferView":5,
			"componentType":5126,
			"count":18,
			"type":"VEC3"
		},
		{
			"bufferView":6,
			"componentType":5126,
			"count":18,
			"type":"VEC2"
		},
		{
			"bufferView":7,
			"componentType":5123,
			"count":30,
			"type":"SCALAR"
		},
		{
			"bufferView":8,
			"componentType":5126,
			"count":8,
			"max":[
				0.09843592345714569,
				-0.404311865568161,
				0.07475797086954117
			],
			"min":[
				-0.09370804578065872,
				-0.6883118748664856,
				-0.07671619206666946
			],
			"type":"VEC3"
		},
		{
			"bufferView":9,
			"componentType":5126,
			"count":8,
			"type":"VEC3"
		},
		{
			"bufferView":10,
			"componentType":5126,
			"count":8,
			"type":"VEC2"
		},
		{
			"bufferView":11,
			"componentType":5123,
			"count":12,
			"type":"SCALAR"
		}
	],
	"bufferViews":[
		{
			"buffer":0,
			"byteLength":6396,
			"byteOffset":0,
			"target":34962
		},
		{
			"buffer":0,
			"byteLength":6396,
			"byteOffset":6396,
			"target":34962
		},
		{
			"buffer":0,
			"byteLength":4264,
			"byteOffset":12792,
			"target":34962
		},
		{
			"buffer":0,
			"byteLength":2076,
			"byteOffset":17056,
			"target":34963
		},
		{
			"buffer":0,
			"byteLength":216,
			"byteOffset":19132,
			"target":34962
		},
		{
			"buffer":0,
			"byteLength":216,
			"byteOffset":19348,
			"target":34962
		},
		{
			"buffer":0,
			"byteLength":144,
			"byteOffset":19564,
			"target":34962
		},
		{
			"buffer":0,
			"byteLength":60,
			"byteOffset":19708,
			"target":34963
		},
		{
			"buffer":0,
			"byteLength":96,
			"byteOffset":19768,
			"target":34962
		},
		{
			"buffer":0,
			"byteLength":96,
			"byteOffset":19864,
			"target":34962
		},
		{
			"buffer":0,
			"byteLength":64,
			"byteOffset":19960,
			"target":34962
		},
		{
			"buffer":0,
			"byteLength":24,
			"byteOffset":20024,
			"target":34963
		}
	],
	"buffers":[
		{
			"byteLength":20048,
			"uri":"gun1.bin"
		}
	]
}
