{
	"asset":{
		"generator":"Khronos glTF Blender I/O v4.3.47",
		"version":"2.0"
	},
	"extensionsUsed":[
		"KHR_texture_transform"
	],
	"extensionsRequired":[
		"KHR_texture_transform"
	],
	"scene":0,
	"scenes":[
		{
			"name":"Scene",
			"nodes":[
				0,
				1,
				2,
				3,
				4,
				5
			]
		}
	],
	"nodes":[
		{
			"mesh":0,
			"name":"Circle.002",
			"rotation":[
				0,
				0,
				-0.7071068286895752,
				0.7071068286895752
			],
			"scale":[
				0.5,
				0.5,
				0.5
			],
			"translation":[
				0,
				0,
				31.856277465820312
			]
		},
		{
			"mesh":1,
			"name":"Circle.003",
			"rotation":[
				0,
				0,
				-0.7071068286895752,
				0.7071068286895752
			],
			"scale":[
				0.5,
				0.5,
				0.5
			],
			"translation":[
				0,
				0,
				36.57762145996094
			]
		},
		{
			"mesh":2,
			"name":"room1"
		},
		{
			"mesh":3,
			"name":"Circle.001",
			"rotation":[
				0,
				0,
				-0.7071068286895752,
				0.7071068286895752
			],
			"scale":[
				0.5,
				0.5,
				0.5
			],
			"translation":[
				1.4308887720108032,
				0.7843942642211914,
				0.16536271572113037
			]
		},
		{
			"mesh":4,
			"name":"Circle.004",
			"rotation":[
				0,
				0,
				-0.7071068286895752,
				0.7071068286895752
			],
			"scale":[
				0.5,
				0.5,
				0.5
			],
			"translation":[
				12.813947677612305,
				0.7860946655273438,
				0.16556331515312195
			]
		},
		{
			"mesh":5,
			"name":"Cube",
			"translation":[
				0.05986595153808594,
				0.20514678955078125,
				-17.497337341308594
			]
		}
	],
	"materials":[
		{
			"doubleSided":true,
			"name":"concrete2",
			"pbrMetallicRoughness":{
				"baseColorTexture":{
					"extensions":{
						"KHR_texture_transform":{
							"offset":[
								0,
								-9
							],
							"scale":[
								10,
								10
							]
						}
					},
					"index":0
				},
				"metallicFactor":0,
				"roughnessFactor":0.5
			}
		},
		{
			"doubleSided":true,
			"name":"concrete1",
			"pbrMetallicRoughness":{
				"baseColorTexture":{
					"extensions":{
						"KHR_texture_transform":{
							"offset":[
								0,
								-5
							],
							"scale":[
								6,
								6
							]
						}
					},
					"index":1
				},
				"metallicFactor":0,
				"roughnessFactor":0.5
			}
		},
		{
			"doubleSided":true,
			"name":"empty",
			"pbrMetallicRoughness":{
				"baseColorFactor":[
					0.800000011920929,
					0.800000011920929,
					0.800000011920929,
					1
				],
				"metallicFactor":0,
				"roughnessFactor":0.5
			}
		},
		{
			"doubleSided":true,
			"name":"metal1",
			"pbrMetallicRoughness":{
				"baseColorTexture":{
					"index":2
				},
				"metallicFactor":0,
				"roughnessFactor":0.5
			}
		},
		{
			"doubleSided":true,
			"name":"AA",
			"pbrMetallicRoughness":{
				"baseColorTexture":{
					"extensions":{
						"KHR_texture_transform":{
							"offset":[
								0,
								-9
							],
							"scale":[
								1,
								10
							]
						}
					},
					"index":3
				},
				"metallicFactor":0,
				"roughnessFactor":0.5
			}
		}
	],
	"meshes":[
		{
			"name":"Circle.002",
			"primitives":[
				{
					"attributes":{
						"POSITION":0,
						"NORMAL":1,
						"TEXCOORD_0":2
					},
					"indices":3
				}
			]
		},
		{
			"name":"Circle.003",
			"primitives":[
				{
					"attributes":{
						"POSITION":4,
						"NORMAL":5,
						"TEXCOORD_0":6
					},
					"indices":7
				}
			]
		},
		{
			"name":"Plane",
			"primitives":[
				{
					"attributes":{
						"POSITION":8,
						"NORMAL":9,
						"TEXCOORD_0":10
					},
					"indices":11,
					"material":0
				},
				{
					"attributes":{
						"POSITION":12,
						"NORMAL":13,
						"TEXCOORD_0":14
					},
					"indices":15,
					"material":1
				},
				{
					"attributes":{
						"POSITION":16,
						"NORMAL":17,
						"TEXCOORD_0":18
					},
					"indices":19,
					"material":2
				},
				{
					"attributes":{
						"POSITION":20,
						"NORMAL":21,
						"TEXCOORD_0":22
					},
					"indices":23,
					"material":3
				}
			]
		},
		{
			"name":"Circle.004",
			"primitives":[
				{
					"attributes":{
						"POSITION":24,
						"NORMAL":25,
						"TEXCOORD_0":26
					},
					"indices":27,
					"material":4
				}
			]
		},
		{
			"name":"Circle.005",
			"primitives":[
				{
					"attributes":{
						"POSITION":28,
						"NORMAL":29,
						"TEXCOORD_0":30
					},
					"indices":3
				}
			]
		},
		{
			"name":"Cube",
			"primitives":[
				{
					"attributes":{
						"POSITION":31,
						"NORMAL":32,
						"TEXCOORD_0":33
					},
					"indices":34,
					"material":1
				}
			]
		}
	],
	"textures":[
		{
			"sampler":0,
			"source":0
		},
		{
			"sampler":0,
			"source":1
		},
		{
			"sampler":0,
			"source":2
		},
		{
			"sampler":0,
			"source":3
		}
	],
	"images":[
		{
			"mimeType":"image/png",
			"name":"broken_down_concrete1_albedo",
			"uri":"broken_down_concrete1_albedo.png"
		},
		{
			"mimeType":"image/png",
			"name":"patchy_cement1_Base_Color",
			"uri":"patchy_cement1_Base_Color.png"
		},
		{
			"mimeType":"image/png",
			"name":"pitted-rusted-metal1_albedo",
			"uri":"pitted-rusted-metal1_albedo.png"
		},
		{
			"mimeType":"image/png",
			"name":"spotted-rust_albedo",
			"uri":"spotted-rust_albedo.png"
		}
	],
	"accessors":[
		{
			"bufferView":0,
			"componentType":5126,
			"count":168,
			"max":[
				3.6776833534240723,
				2.622683403785686e-08,
				4
			],
			"min":[
				-3.8042261600494385,
				-5,
				-4
			],
			"type":"VEC3"
		},
		{
			"bufferView":1,
			"componentType":5126,
			"count":168,
			"type":"VEC3"
		},
		{
			"bufferView":2,
			"componentType":5126,
			"count":168,
			"type":"VEC2"
		},
		{
			"bufferView":3,
			"componentType":5123,
			"count":336,
			"type":"SCALAR"
		},
		{
			"bufferView":4,
			"componentType":5126,
			"count":120,
			"max":[
				3.6776833534240723,
				5,
				3.4907119274139404
			],
			"min":[
				1.566088318824768,
				-7.709825000645765e-10,
				-3.4907121658325195
			],
			"type":"VEC3"
		},
		{
			"bufferView":5,
			"componentType":5126,
			"count":120,
			"type":"VEC3"
		},
		{
			"bufferView":6,
			"componentType":5126,
			"count":120,
			"type":"VEC2"
		},
		{
			"bufferView":7,
			"componentType":5123,
			"count":228,
			"type":"SCALAR"
		},
		{
			"bufferView":8,
			"componentType":5126,
			"count":82,
			"max":[
				4.800000190734863,
				3.5,
				5
			],
			"min":[
				-14.800000190734863,
				0,
				-7
			],
			"type":"VEC3"
		},
		{
			"bufferView":9,
			"componentType":5126,
			"count":82,
			"type":"VEC3"
		},
		{
			"bufferView":10,
			"componentType":5126,
			"count":82,
			"type":"VEC2"
		},
		{
			"bufferView":11,
			"componentType":5123,
			"count":156,
			"type":"SCALAR"
		},
		{
			"bufferView":12,
			"componentType":5126,
			"count":122,
			"max":[
				5,
				4.199999809265137,
				5
			],
			"min":[
				-14.800000190734863,
				0,
				-6.800000190734863
			],
			"type":"VEC3"
		},
		{
			"bufferView":13,
			"componentType":5126,
			"count":122,
			"type":"VEC3"
		},
		{
			"bufferView":14,
			"componentType":5126,
			"count":122,
			"type":"VEC2"
		},
		{
			"bufferView":15,
			"componentType":5123,
			"count":234,
			"type":"SCALAR"
		},
		{
			"bufferView":16,
			"componentType":5126,
			"count":149,
			"max":[
				5,
				4.399999618530273,
				5
			],
			"min":[
				-15,
				0,
				-7
			],
			"type":"VEC3"
		},
		{
			"bufferView":17,
			"componentType":5126,
			"count":149,
			"type":"VEC3"
		},
		{
			"bufferView":18,
			"componentType":5126,
			"count":149,
			"type":"VEC2"
		},
		{
			"bufferView":19,
			"componentType":5123,
			"count":378,
			"type":"SCALAR"
		},
		{
			"bufferView":20,
			"componentType":5126,
			"count":68,
			"max":[
				4.779825210571289,
				0.20000000298023224,
				1.9087713956832886
			],
			"min":[
				-13.790068626403809,
				0,
				-1.5780460834503174
			],
			"type":"VEC3"
		},
		{
			"bufferView":21,
			"componentType":5126,
			"count":68,
			"type":"VEC3"
		},
		{
			"bufferView":22,
			"componentType":5126,
			"count":68,
			"type":"VEC2"
		},
		{
			"bufferView":23,
			"componentType":5123,
			"count":138,
			"type":"SCALAR"
		},
		{
			"bufferView":24,
			"componentType":5126,
			"count":166,
			"max":[
				3.677684783935547,
				6.694061756134033,
				3.4907119274139404
			],
			"min":[
				1.5660881996154785,
				-30.775985717773438,
				-3.4907121658325195
			],
			"type":"VEC3"
		},
		{
			"bufferView":25,
			"componentType":5126,
			"count":166,
			"type":"VEC3"
		},
		{
			"bufferView":26,
			"componentType":5126,
			"count":166,
			"type":"VEC2"
		},
		{
			"bufferView":27,
			"componentType":5123,
			"count":348,
			"type":"SCALAR"
		},
		{
			"bufferView":28,
			"componentType":5126,
			"count":168,
			"max":[
				3.6776833534240723,
				2.622683403785686e-08,
				4
			],
			"min":[
				-3.8042261600494385,
				-5,
				-4
			],
			"type":"VEC3"
		},
		{
			"bufferView":29,
			"componentType":5126,
			"count":168,
			"type":"VEC3"
		},
		{
			"bufferView":30,
			"componentType":5126,
			"count":168,
			"type":"VEC2"
		},
		{
			"bufferView":31,
			"componentType":5126,
			"count":24,
			"max":[
				1,
				1,
				1
			],
			"min":[
				-1,
				-1,
				-1
			],
			"type":"VEC3"
		},
		{
			"bufferView":32,
			"componentType":5126,
			"count":24,
			"type":"VEC3"
		},
		{
			"bufferView":33,
			"componentType":5126,
			"count":24,
			"type":"VEC2"
		},
		{
			"bufferView":34,
			"componentType":5123,
			"count":36,
			"type":"SCALAR"
		}
	],
	"bufferViews":[
		{
			"buffer":0,
			"byteLength":2016,
			"byteOffset":0,
			"target":34962
		},
		{
			"buffer":0,
			"byteLength":2016,
			"byteOffset":2016,
			"target":34962
		},
		{
			"buffer":0,
			"byteLength":1344,
			"byteOffset":4032,
			"target":34962
		},
		{
			"buffer":0,
			"byteLength":672,
			"byteOffset":5376,
			"target":34963
		},
		{
			"buffer":0,
			"byteLength":1440,
			"byteOffset":6048,
			"target":34962
		},
		{
			"buffer":0,
			"byteLength":1440,
			"byteOffset":7488,
			"target":34962
		},
		{
			"buffer":0,
			"byteLength":960,
			"byteOffset":8928,
			"target":34962
		},
		{
			"buffer":0,
			"byteLength":456,
			"byteOffset":9888,
			"target":34963
		},
		{
			"buffer":0,
			"byteLength":984,
			"byteOffset":10344,
			"target":34962
		},
		{
			"buffer":0,
			"byteLength":984,
			"byteOffset":11328,
			"target":34962
		},
		{
			"buffer":0,
			"byteLength":656,
			"byteOffset":12312,
			"target":34962
		},
		{
			"buffer":0,
			"byteLength":312,
			"byteOffset":12968,
			"target":34963
		},
		{
			"buffer":0,
			"byteLength":1464,
			"byteOffset":13280,
			"target":34962
		},
		{
			"buffer":0,
			"byteLength":1464,
			"byteOffset":14744,
			"target":34962
		},
		{
			"buffer":0,
			"byteLength":976,
			"byteOffset":16208,
			"target":34962
		},
		{
			"buffer":0,
			"byteLength":468,
			"byteOffset":17184,
			"target":34963
		},
		{
			"buffer":0,
			"byteLength":1788,
			"byteOffset":17652,
			"target":34962
		},
		{
			"buffer":0,
			"byteLength":1788,
			"byteOffset":19440,
			"target":34962
		},
		{
			"buffer":0,
			"byteLength":1192,
			"byteOffset":21228,
			"target":34962
		},
		{
			"buffer":0,
			"byteLength":756,
			"byteOffset":22420,
			"target":34963
		},
		{
			"buffer":0,
			"byteLength":816,
			"byteOffset":23176,
			"target":34962
		},
		{
			"buffer":0,
			"byteLength":816,
			"byteOffset":23992,
			"target":34962
		},
		{
			"buffer":0,
			"byteLength":544,
			"byteOffset":24808,
			"target":34962
		},
		{
			"buffer":0,
			"byteLength":276,
			"byteOffset":25352,
			"target":34963
		},
		{
			"buffer":0,
			"byteLength":1992,
			"byteOffset":25628,
			"target":34962
		},
		{
			"buffer":0,
			"byteLength":1992,
			"byteOffset":27620,
			"target":34962
		},
		{
			"buffer":0,
			"byteLength":1328,
			"byteOffset":29612,
			"target":34962
		},
		{
			"buffer":0,
			"byteLength":696,
			"byteOffset":30940,
			"target":34963
		},
		{
			"buffer":0,
			"byteLength":2016,
			"byteOffset":31636,
			"target":34962
		},
		{
			"buffer":0,
			"byteLength":2016,
			"byteOffset":33652,
			"target":34962
		},
		{
			"buffer":0,
			"byteLength":1344,
			"byteOffset":35668,
			"target":34962
		},
		{
			"buffer":0,
			"byteLength":288,
			"byteOffset":37012,
			"target":34962
		},
		{
			"buffer":0,
			"byteLength":288,
			"byteOffset":37300,
			"target":34962
		},
		{
			"buffer":0,
			"byteLength":192,
			"byteOffset":37588,
			"target":34962
		},
		{
			"buffer":0,
			"byteLength":72,
			"byteOffset":37780,
			"target":34963
		}
	],
	"samplers":[
		{
			"magFilter":9729,
			"minFilter":9987
		}
	],
	"buffers":[
		{
			"byteLength":37852,
			"uri":"loc1room1.bin"
		}
	]
}
