{
	"asset":{
		"generator":"Khronos glTF Blender I/O v4.3.47",
		"version":"2.0"
	},
	"scene":0,
	"scenes":[
		{
			"name":"Scene",
			"nodes":[
				0
			]
		}
	],
	"nodes":[
		{
			"mesh":0,
			"name":"Plane",
			"translation":[
				-2.381558418273926,
				0,
				0
			]
		}
	],
	"materials":[
		{
			"doubleSided":true,
			"name":"Material.001",
			"pbrMetallicRoughness":{
				"baseColorFactor":[
					0.18079343438148499,
					0.18079343438148499,
					0.18079343438148499,
					1
				],
				"metallicFactor":0,
				"roughnessFactor":0.5
			}
		}
	],
	"meshes":[
		{
			"name":"Plane.004",
			"primitives":[
				{
					"attributes":{
						"POSITION":0,
						"NORMAL":1,
						"TEXCOORD_0":2
					},
					"indices":3,
					"material":0
				}
			]
		}
	],
	"accessors":[
		{
			"bufferView":0,
			"componentType":5126,
			"count":121,
			"max":[
				9,
				3.5,
				4
			],
			"min":[
				-3,
				0,
				-3.430000066757202
			],
			"type":"VEC3"
		},
		{
			"bufferView":1,
			"componentType":5126,
			"count":121,
			"type":"VEC3"
		},
		{
			"bufferView":2,
			"componentType":5126,
			"count":121,
			"type":"VEC2"
		},
		{
			"bufferView":3,
			"componentType":5123,
			"count":246,
			"type":"SCALAR"
		}
	],
	"bufferViews":[
		{
			"buffer":0,
			"byteLength":1452,
			"byteOffset":0,
			"target":34962
		},
		{
			"buffer":0,
			"byteLength":1452,
			"byteOffset":1452,
			"target":34962
		},
		{
			"buffer":0,
			"byteLength":968,
			"byteOffset":2904,
			"target":34962
		},
		{
			"buffer":0,
			"byteLength":492,
			"byteOffset":3872,
			"target":34963
		}
	],
	"buffers":[
		{
			"byteLength":4364,
			"uri":"LIFT_TEST.bin"
		}
	]
}
