{
	"asset":{
		"generator":"Khronos glTF Blender I/O v4.3.47",
		"version":"2.0"
	},
	"scene":0,
	"scenes":[
		{
			"name":"Scene",
			"nodes":[
				0,
				1,
				2,
				3
			]
		}
	],
	"nodes":[
		{
			"mesh":0,
			"name":"door_3",
			"rotation":[
				0.7071068286895752,
				0,
				0,
				0.7071068286895752
			],
			"translation":[
				0.4106138348579407,
				2.25,
				-3.120000123977661
			]
		},
		{
			"mesh":1,
			"name":"door_2",
			"rotation":[
				0.7071068286895752,
				0,
				0,
				0.7071068286895752
			],
			"translation":[
				3.5938150882720947,
				2.25,
				-3.3299999237060547
			]
		},
		{
			"mesh":2,
			"name":"door_1",
			"rotation":[
				0.7071068286895752,
				0,
				0,
				0.7071068286895752
			],
			"translation":[
				3.5938150882720947,
				2.25,
				-3.009999990463257
			]
		},
		{
			"mesh":3,
			"name":"body_lift"
		}
	],
	"animations":[
		{
			"channels":[
				{
					"sampler":0,
					"target":{
						"node":0,
						"path":"translation"
					}
				}
			],
			"name":"close_door_3",
			"samplers":[
				{
					"input":22,
					"interpolation":"LINEAR",
					"output":23
				}
			]
		},
		{
			"channels":[
				{
					"sampler":0,
					"target":{
						"node":0,
						"path":"translation"
					}
				}
			],
			"name":"open_door_3",
			"samplers":[
				{
					"input":22,
					"interpolation":"LINEAR",
					"output":24
				}
			]
		},
		{
			"channels":[
				{
					"sampler":0,
					"target":{
						"node":1,
						"path":"translation"
					}
				}
			],
			"name":"close_door_2",
			"samplers":[
				{
					"input":22,
					"interpolation":"LINEAR",
					"output":25
				}
			]
		},
		{
			"channels":[
				{
					"sampler":0,
					"target":{
						"node":1,
						"path":"translation"
					}
				}
			],
			"name":"open_door_2",
			"samplers":[
				{
					"input":22,
					"interpolation":"LINEAR",
					"output":26
				}
			]
		},
		{
			"channels":[
				{
					"sampler":0,
					"target":{
						"node":2,
						"path":"translation"
					}
				}
			],
			"name":"close_door_1",
			"samplers":[
				{
					"input":22,
					"interpolation":"LINEAR",
					"output":27
				}
			]
		},
		{
			"channels":[
				{
					"sampler":0,
					"target":{
						"node":2,
						"path":"translation"
					}
				}
			],
			"name":"open_door_1",
			"samplers":[
				{
					"input":22,
					"interpolation":"LINEAR",
					"output":28
				}
			]
		}
	],
	"materials":[
		{
			"doubleSided":true,
			"name":"door",
			"pbrMetallicRoughness":{
				"baseColorFactor":[
					0.03208940848708153,
					0.06861666589975357,
					0.14889304339885712,
					1
				],
				"metallicFactor":0,
				"roughnessFactor":0.5
			}
		},
		{
			"doubleSided":true,
			"name":"base_lift",
			"pbrMetallicRoughness":{
				"baseColorFactor":[
					0.20712284743785858,
					0.20712284743785858,
					0.20712284743785858,
					1
				],
				"metallicFactor":0,
				"roughnessFactor":0.5
			}
		},
		{
			"doubleSided":true,
			"name":"wall_lift",
			"pbrMetallicRoughness":{
				"baseColorFactor":[
					0.09455694258213043,
					0.08560825139284134,
					0.15268337726593018,
					1
				],
				"metallicFactor":0,
				"roughnessFactor":0.5
			}
		},
		{
			"doubleSided":true,
			"name":"floor_lift",
			"pbrMetallicRoughness":{
				"baseColorFactor":[
					0.37133345007896423,
					0.37133345007896423,
					0.37133345007896423,
					1
				],
				"metallicFactor":0,
				"roughnessFactor":0.5
			}
		}
	],
	"meshes":[
		{
			"name":"Plane.003",
			"primitives":[
				{
					"attributes":{
						"POSITION":0,
						"NORMAL":1,
						"TEXCOORD_0":2
					},
					"indices":3,
					"material":0
				}
			]
		},
		{
			"name":"Plane.002",
			"primitives":[
				{
					"attributes":{
						"POSITION":4,
						"NORMAL":5,
						"TEXCOORD_0":6
					},
					"indices":3,
					"material":0
				}
			]
		},
		{
			"name":"Plane.001",
			"primitives":[
				{
					"attributes":{
						"POSITION":7,
						"NORMAL":8,
						"TEXCOORD_0":9
					},
					"indices":3,
					"material":0
				}
			]
		},
		{
			"name":"Plane.004",
			"primitives":[
				{
					"attributes":{
						"POSITION":10,
						"NORMAL":11,
						"TEXCOORD_0":12
					},
					"indices":13,
					"material":1
				},
				{
					"attributes":{
						"POSITION":14,
						"NORMAL":15,
						"TEXCOORD_0":16
					},
					"indices":17,
					"material":2
				},
				{
					"attributes":{
						"POSITION":18,
						"NORMAL":19,
						"TEXCOORD_0":20
					},
					"indices":21,
					"material":3
				}
			]
		}
	],
	"accessors":[
		{
			"bufferView":0,
			"componentType":5126,
			"count":24,
			"max":[
				1.75,
				0,
				1.75
			],
			"min":[
				-2.748544692993164,
				-0.20000000298023224,
				-1.75
			],
			"type":"VEC3"
		},
		{
			"bufferView":1,
			"componentType":5126,
			"count":24,
			"type":"VEC3"
		},
		{
			"bufferView":2,
			"componentType":5126,
			"count":24,
			"type":"VEC2"
		},
		{
			"bufferView":3,
			"componentType":5123,
			"count":36,
			"type":"SCALAR"
		},
		{
			"bufferView":4,
			"componentType":5126,
			"count":24,
			"max":[
				1.75,
				0,
				1.75
			],
			"min":[
				-2.748544692993164,
				-0.10000000149011612,
				-1.75
			],
			"type":"VEC3"
		},
		{
			"bufferView":5,
			"componentType":5126,
			"count":24,
			"type":"VEC3"
		},
		{
			"bufferView":6,
			"componentType":5126,
			"count":24,
			"type":"VEC2"
		},
		{
			"bufferView":7,
			"componentType":5126,
			"count":24,
			"max":[
				1.75,
				0,
				1.75
			],
			"min":[
				-2.748544692993164,
				-0.10000000149011612,
				-1.75
			],
			"type":"VEC3"
		},
		{
			"bufferView":8,
			"componentType":5126,
			"count":24,
			"type":"VEC3"
		},
		{
			"bufferView":9,
			"componentType":5126,
			"count":24,
			"type":"VEC2"
		},
		{
			"bufferView":10,
			"componentType":5126,
			"count":114,
			"max":[
				9,
				3.990000009536743,
				4
			],
			"min":[
				-3,
				0,
				-3.430000066757202
			],
			"type":"VEC3"
		},
		{
			"bufferView":11,
			"componentType":5126,
			"count":114,
			"type":"VEC3"
		},
		{
			"bufferView":12,
			"componentType":5126,
			"count":114,
			"type":"VEC2"
		},
		{
			"bufferView":13,
			"componentType":5123,
			"count":231,
			"type":"SCALAR"
		},
		{
			"bufferView":14,
			"componentType":5126,
			"count":12,
			"max":[
				8.5,
				3.990000009536743,
				3.5
			],
			"min":[
				-2.5,
				0.5,
				-2.799999952316284
			],
			"type":"VEC3"
		},
		{
			"bufferView":15,
			"componentType":5126,
			"count":12,
			"type":"VEC3"
		},
		{
			"bufferView":16,
			"componentType":5126,
			"count":12,
			"type":"VEC2"
		},
		{
			"bufferView":17,
			"componentType":5123,
			"count":18,
			"type":"SCALAR"
		},
		{
			"bufferView":18,
			"componentType":5126,
			"count":6,
			"max":[
				8.5,
				0.5,
				3.5
			],
			"min":[
				-2.5,
				0.5,
				-2.799999952316284
			],
			"type":"VEC3"
		},
		{
			"bufferView":19,
			"componentType":5126,
			"count":6,
			"type":"VEC3"
		},
		{
			"bufferView":20,
			"componentType":5126,
			"count":6,
			"type":"VEC2"
		},
		{
			"bufferView":21,
			"componentType":5123,
			"count":12,
			"type":"SCALAR"
		},
		{
			"bufferView":22,
			"componentType":5126,
			"count":120,
			"max":[
				2
			],
			"min":[
				0.016666666666666666
			],
			"type":"SCALAR"
		},
		{
			"bufferView":23,
			"componentType":5126,
			"count":120,
			"type":"VEC3"
		},
		{
			"bufferView":24,
			"componentType":5126,
			"count":120,
			"type":"VEC3"
		},
		{
			"bufferView":25,
			"componentType":5126,
			"count":120,
			"type":"VEC3"
		},
		{
			"bufferView":26,
			"componentType":5126,
			"count":120,
			"type":"VEC3"
		},
		{
			"bufferView":27,
			"componentType":5126,
			"count":120,
			"type":"VEC3"
		},
		{
			"bufferView":28,
			"componentType":5126,
			"count":120,
			"type":"VEC3"
		}
	],
	"bufferViews":[
		{
			"buffer":0,
			"byteLength":288,
			"byteOffset":0,
			"target":34962
		},
		{
			"buffer":0,
			"byteLength":288,
			"byteOffset":288,
			"target":34962
		},
		{
			"buffer":0,
			"byteLength":192,
			"byteOffset":576,
			"target":34962
		},
		{
			"buffer":0,
			"byteLength":72,
			"byteOffset":768,
			"target":34963
		},
		{
			"buffer":0,
			"byteLength":288,
			"byteOffset":840,
			"target":34962
		},
		{
			"buffer":0,
			"byteLength":288,
			"byteOffset":1128,
			"target":34962
		},
		{
			"buffer":0,
			"byteLength":192,
			"byteOffset":1416,
			"target":34962
		},
		{
			"buffer":0,
			"byteLength":288,
			"byteOffset":1608,
			"target":34962
		},
		{
			"buffer":0,
			"byteLength":288,
			"byteOffset":1896,
			"target":34962
		},
		{
			"buffer":0,
			"byteLength":192,
			"byteOffset":2184,
			"target":34962
		},
		{
			"buffer":0,
			"byteLength":1368,
			"byteOffset":2376,
			"target":34962
		},
		{
			"buffer":0,
			"byteLength":1368,
			"byteOffset":3744,
			"target":34962
		},
		{
			"buffer":0,
			"byteLength":912,
			"byteOffset":5112,
			"target":34962
		},
		{
			"buffer":0,
			"byteLength":462,
			"byteOffset":6024,
			"target":34963
		},
		{
			"buffer":0,
			"byteLength":144,
			"byteOffset":6488,
			"target":34962
		},
		{
			"buffer":0,
			"byteLength":144,
			"byteOffset":6632,
			"target":34962
		},
		{
			"buffer":0,
			"byteLength":96,
			"byteOffset":6776,
			"target":34962
		},
		{
			"buffer":0,
			"byteLength":36,
			"byteOffset":6872,
			"target":34963
		},
		{
			"buffer":0,
			"byteLength":72,
			"byteOffset":6908,
			"target":34962
		},
		{
			"buffer":0,
			"byteLength":72,
			"byteOffset":6980,
			"target":34962
		},
		{
			"buffer":0,
			"byteLength":48,
			"byteOffset":7052,
			"target":34962
		},
		{
			"buffer":0,
			"byteLength":24,
			"byteOffset":7100,
			"target":34963
		},
		{
			"buffer":0,
			"byteLength":480,
			"byteOffset":7124
		},
		{
			"buffer":0,
			"byteLength":1440,
			"byteOffset":7604
		},
		{
			"buffer":0,
			"byteLength":1440,
			"byteOffset":9044
		},
		{
			"buffer":0,
			"byteLength":1440,
			"byteOffset":10484
		},
		{
			"buffer":0,
			"byteLength":1440,
			"byteOffset":11924
		},
		{
			"buffer":0,
			"byteLength":1440,
			"byteOffset":13364
		},
		{
			"buffer":0,
			"byteLength":1440,
			"byteOffset":14804
		}
	],
	"buffers":[
		{
			"byteLength":16244,
			"uri":"loc1-1-lift.bin"
		}
	]
}
