{
	"asset":{
		"generator":"Khronos glTF Blender I/O v4.3.47",
		"version":"2.0"
	},
	"extensionsUsed":[
		"KHR_texture_transform"
	],
	"extensionsRequired":[
		"KHR_texture_transform"
	],
	"scene":0,
	"scenes":[
		{
			"name":"Scene",
			"nodes":[
				0
			]
		}
	],
	"nodes":[
		{
			"mesh":0,
			"name":"Circle",
			"rotation":[
				0,
				0,
				-0.7071068286895752,
				0.7071068286895752
			]
		}
	],
	"materials":[
		{
			"doubleSided":true,
			"name":"Base",
			"pbrMetallicRoughness":{
				"baseColorFactor":[
					0.800000011920929,
					0.800000011920929,
					0.800000011920929,
					1
				],
				"metallicFactor":0,
				"roughnessFactor":0.5
			}
		},
		{
			"doubleSided":true,
			"name":"floor",
			"pbrMetallicRoughness":{
				"baseColorTexture":{
					"extensions":{
						"KHR_texture_transform":{
							"offset":[
								0,
								-2.0900000035762787
							],
							"scale":[
								3,
								3
							]
						}
					},
					"index":0
				},
				"metallicFactor":0,
				"roughnessFactor":0.5
			}
		},
		{
			"doubleSided":true,
			"name":"wall",
			"normalTexture":{
				"extensions":{
					"KHR_texture_transform":{
						"offset":[
							0,
							-3
						],
						"scale":[
							3.9999985694885254,
							4
						]
					}
				},
				"index":1,
				"scale":0.19999992847442627
			},
			"pbrMetallicRoughness":{
				"baseColorTexture":{
					"extensions":{
						"KHR_texture_transform":{
							"offset":[
								0,
								-3
							],
							"scale":[
								3.9999985694885254,
								4
							]
						}
					},
					"index":2
				},
				"metallicFactor":0.4145454466342926,
				"roughnessFactor":0.8381818532943726
			}
		}
	],
	"meshes":[
		{
			"name":"Circle",
			"primitives":[
				{
					"attributes":{
						"POSITION":0,
						"NORMAL":1,
						"TEXCOORD_0":2
					},
					"indices":3,
					"material":0
				},
				{
					"attributes":{
						"POSITION":4,
						"NORMAL":5,
						"TEXCOORD_0":6
					},
					"indices":7,
					"material":1
				},
				{
					"attributes":{
						"POSITION":8,
						"NORMAL":9,
						"TEXCOORD_0":10
					},
					"indices":11,
					"material":2
				}
			]
		}
	],
	"textures":[
		{
			"sampler":0,
			"source":0
		},
		{
			"sampler":0,
			"source":1
		},
		{
			"sampler":0,
			"source":2
		}
	],
	"images":[
		{
			"mimeType":"image/png",
			"name":"\u041f\u043b\u0438\u0442\u0430 \u0431\u0435\u0442\u043e\u043d\u043d\u0430\u044f \u0434\u043b\u044f \u0441\u0442\u0435\u043d\u044b 1.0",
			"uri":"%D0%9F%D0%BB%D0%B8%D1%82%D0%B0%20%D0%B1%D0%B5%D1%82%D0%BE%D0%BD%D0%BD%D0%B0%D1%8F%20%D0%B4%D0%BB%D1%8F%20%D1%81%D1%82%D0%B5%D0%BD%D1%8B%201_0.png"
		},
		{
			"mimeType":"image/png",
			"name":"\u0422\u0435\u043a\u0441\u0442\u0443\u0440\u0430 \u0442\u0443\u043d\u0435\u043b\u044c Normal",
			"uri":"%D0%A2%D0%B5%D0%BA%D1%81%D1%82%D1%83%D1%80%D0%B0%20%D1%82%D1%83%D0%BD%D0%B5%D0%BB%D1%8C%20Normal.png"
		},
		{
			"mimeType":"image/png",
			"name":"\u0422\u0435\u043a\u0441\u0442\u0443\u0440\u0430 \u0442\u0443\u043d\u0435\u043b\u044c1.0",
			"uri":"%D0%A2%D0%B5%D0%BA%D1%81%D1%82%D1%83%D1%80%D0%B0%20%D1%82%D1%83%D0%BD%D0%B5%D0%BB%D1%8C1_0.png"
		}
	],
	"accessors":[
		{
			"bufferView":0,
			"componentType":5126,
			"count":116,
			"max":[
				2.838569164276123,
				10,
				3
			],
			"min":[
				-3.000000476837158,
				0,
				-3
			],
			"type":"VEC3"
		},
		{
			"bufferView":1,
			"componentType":5126,
			"count":116,
			"type":"VEC3"
		},
		{
			"bufferView":2,
			"componentType":5126,
			"count":116,
			"type":"VEC2"
		},
		{
			"bufferView":3,
			"componentType":5123,
			"count":246,
			"type":"SCALAR"
		},
		{
			"bufferView":4,
			"componentType":5126,
			"count":20,
			"max":[
				2.338569164276123,
				10,
				1.7163183689117432
			],
			"min":[
				1.6746504306793213,
				0,
				-1.7160983085632324
			],
			"type":"VEC3"
		},
		{
			"bufferView":5,
			"componentType":5126,
			"count":20,
			"type":"VEC3"
		},
		{
			"bufferView":6,
			"componentType":5126,
			"count":20,
			"type":"VEC2"
		},
		{
			"bufferView":7,
			"componentType":5123,
			"count":30,
			"type":"SCALAR"
		},
		{
			"bufferView":8,
			"componentType":5126,
			"count":40,
			"max":[
				1.6748709678649902,
				10,
				2.4823617935180664
			],
			"min":[
				-2.4823622703552246,
				0,
				-2.4823617935180664
			],
			"type":"VEC3"
		},
		{
			"bufferView":9,
			"componentType":5126,
			"count":40,
			"type":"VEC3"
		},
		{
			"bufferView":10,
			"componentType":5126,
			"count":40,
			"type":"VEC2"
		},
		{
			"bufferView":11,
			"componentType":5123,
			"count":60,
			"type":"SCALAR"
		}
	],
	"bufferViews":[
		{
			"buffer":0,
			"byteLength":1392,
			"byteOffset":0,
			"target":34962
		},
		{
			"buffer":0,
			"byteLength":1392,
			"byteOffset":1392,
			"target":34962
		},
		{
			"buffer":0,
			"byteLength":928,
			"byteOffset":2784,
			"target":34962
		},
		{
			"buffer":0,
			"byteLength":492,
			"byteOffset":3712,
			"target":34963
		},
		{
			"buffer":0,
			"byteLength":240,
			"byteOffset":4204,
			"target":34962
		},
		{
			"buffer":0,
			"byteLength":240,
			"byteOffset":4444,
			"target":34962
		},
		{
			"buffer":0,
			"byteLength":160,
			"byteOffset":4684,
			"target":34962
		},
		{
			"buffer":0,
			"byteLength":60,
			"byteOffset":4844,
			"target":34963
		},
		{
			"buffer":0,
			"byteLength":480,
			"byteOffset":4904,
			"target":34962
		},
		{
			"buffer":0,
			"byteLength":480,
			"byteOffset":5384,
			"target":34962
		},
		{
			"buffer":0,
			"byteLength":320,
			"byteOffset":5864,
			"target":34962
		},
		{
			"buffer":0,
			"byteLength":120,
			"byteOffset":6184,
			"target":34963
		}
	],
	"samplers":[
		{
			"magFilter":9729,
			"minFilter":9987
		}
	],
	"buffers":[
		{
			"byteLength":6304,
			"uri":"tunnel.bin"
		}
	]
}
