{
	"asset":{
		"generator":"Khronos glTF Blender I/O v4.3.47",
		"version":"2.0"
	},
	"scene":0,
	"scenes":[
		{
			"name":"Scene",
			"nodes":[
				0
			]
		}
	],
	"nodes":[
		{
			"mesh":0,
			"name":"Plane"
		}
	],
	"materials":[
		{
			"doubleSided":true,
			"name":"square2",
			"pbrMetallicRoughness":{
				"baseColorFactor":[
					0.2831188440322876,
					0.13697290420532227,
					0.4733763337135315,
					1
				],
				"metallicFactor":0,
				"roughnessFactor":0.5
			}
		},
		{
			"doubleSided":true,
			"name":"wall",
			"pbrMetallicRoughness":{
				"baseColorFactor":[
					0.001037826295942068,
					0.021825993433594704,
					0.3426125645637512,
					1
				],
				"metallicFactor":0,
				"roughnessFactor":0.5
			}
		},
		{
			"doubleSided":true,
			"name":"square1",
			"pbrMetallicRoughness":{
				"baseColorFactor":[
					0.3135090172290802,
					0.021661804988980293,
					0.1607213318347931,
					1
				],
				"metallicFactor":0,
				"roughnessFactor":0.5
			}
		},
		{
			"doubleSided":true,
			"name":"column",
			"pbrMetallicRoughness":{
				"baseColorFactor":[
					0.13679999113082886,
					0.0042065768502652645,
					0.18000540137290955,
					1
				],
				"metallicFactor":0,
				"roughnessFactor":0.5
			}
		}
	],
	"meshes":[
		{
			"name":"Plane",
			"primitives":[
				{
					"attributes":{
						"POSITION":0,
						"NORMAL":1,
						"TEXCOORD_0":2
					},
					"indices":3,
					"material":0
				},
				{
					"attributes":{
						"POSITION":4,
						"NORMAL":5,
						"TEXCOORD_0":6
					},
					"indices":7,
					"material":1
				},
				{
					"attributes":{
						"POSITION":8,
						"NORMAL":9,
						"TEXCOORD_0":10
					},
					"indices":11,
					"material":2
				},
				{
					"attributes":{
						"POSITION":12,
						"NORMAL":13,
						"TEXCOORD_0":14
					},
					"indices":15,
					"material":3
				}
			]
		}
	],
	"accessors":[
		{
			"bufferView":0,
			"componentType":5126,
			"count":200,
			"max":[
				15,
				5.199999809265137,
				15
			],
			"min":[
				-15,
				0,
				-15
			],
			"type":"VEC3"
		},
		{
			"bufferView":1,
			"componentType":5126,
			"count":200,
			"type":"VEC3"
		},
		{
			"bufferView":2,
			"componentType":5126,
			"count":200,
			"type":"VEC2"
		},
		{
			"bufferView":3,
			"componentType":5123,
			"count":768,
			"type":"SCALAR"
		},
		{
			"bufferView":4,
			"componentType":5126,
			"count":58,
			"max":[
				14.800000190734863,
				5.199999809265137,
				14.800000190734863
			],
			"min":[
				-14.800000190734863,
				0.20000000298023224,
				-14.800000190734863
			],
			"type":"VEC3"
		},
		{
			"bufferView":5,
			"componentType":5126,
			"count":58,
			"type":"VEC3"
		},
		{
			"bufferView":6,
			"componentType":5126,
			"count":58,
			"type":"VEC2"
		},
		{
			"bufferView":7,
			"componentType":5123,
			"count":150,
			"type":"SCALAR"
		},
		{
			"bufferView":8,
			"componentType":5126,
			"count":38,
			"max":[
				12.109090805053711,
				0.20000000298023224,
				14.800000190734863
			],
			"min":[
				-14.800000190734863,
				0.20000000298023224,
				-12.109090805053711
			],
			"type":"VEC3"
		},
		{
			"bufferView":9,
			"componentType":5126,
			"count":38,
			"type":"VEC3"
		},
		{
			"bufferView":10,
			"componentType":5126,
			"count":38,
			"type":"VEC2"
		},
		{
			"bufferView":11,
			"componentType":5123,
			"count":66,
			"type":"SCALAR"
		},
		{
			"bufferView":12,
			"componentType":5126,
			"count":48,
			"max":[
				9.418182373046875,
				5.199999809265137,
				9.418181419372559
			],
			"min":[
				-9.418181419372559,
				0.20000000298023224,
				6.727272033691406
			],
			"type":"VEC3"
		},
		{
			"bufferView":13,
			"componentType":5126,
			"count":48,
			"type":"VEC3"
		},
		{
			"bufferView":14,
			"componentType":5126,
			"count":48,
			"type":"VEC2"
		},
		{
			"bufferView":15,
			"componentType":5123,
			"count":72,
			"type":"SCALAR"
		}
	],
	"bufferViews":[
		{
			"buffer":0,
			"byteLength":2400,
			"byteOffset":0,
			"target":34962
		},
		{
			"buffer":0,
			"byteLength":2400,
			"byteOffset":2400,
			"target":34962
		},
		{
			"buffer":0,
			"byteLength":1600,
			"byteOffset":4800,
			"target":34962
		},
		{
			"buffer":0,
			"byteLength":1536,
			"byteOffset":6400,
			"target":34963
		},
		{
			"buffer":0,
			"byteLength":696,
			"byteOffset":7936,
			"target":34962
		},
		{
			"buffer":0,
			"byteLength":696,
			"byteOffset":8632,
			"target":34962
		},
		{
			"buffer":0,
			"byteLength":464,
			"byteOffset":9328,
			"target":34962
		},
		{
			"buffer":0,
			"byteLength":300,
			"byteOffset":9792,
			"target":34963
		},
		{
			"buffer":0,
			"byteLength":456,
			"byteOffset":10092,
			"target":34962
		},
		{
			"buffer":0,
			"byteLength":456,
			"byteOffset":10548,
			"target":34962
		},
		{
			"buffer":0,
			"byteLength":304,
			"byteOffset":11004,
			"target":34962
		},
		{
			"buffer":0,
			"byteLength":132,
			"byteOffset":11308,
			"target":34963
		},
		{
			"buffer":0,
			"byteLength":576,
			"byteOffset":11440,
			"target":34962
		},
		{
			"buffer":0,
			"byteLength":576,
			"byteOffset":12016,
			"target":34962
		},
		{
			"buffer":0,
			"byteLength":384,
			"byteOffset":12592,
			"target":34962
		},
		{
			"buffer":0,
			"byteLength":144,
			"byteOffset":12976,
			"target":34963
		}
	],
	"buffers":[
		{
			"byteLength":13120,
			"uri":"test_location.bin"
		}
	]
}
