{
	"asset":{
		"generator":"Khronos glTF Blender I/O v4.3.47",
		"version":"2.0"
	},
	"extensionsUsed":[
		"KHR_texture_transform"
	],
	"extensionsRequired":[
		"KHR_texture_transform"
	],
	"scene":0,
	"scenes":[
		{
			"name":"Scene",
			"nodes":[
				0
			]
		}
	],
	"nodes":[
		{
			"mesh":0,
			"name":"Cylinder"
		}
	],
	"materials":[
		{
			"doubleSided":true,
			"name":"base",
			"pbrMetallicRoughness":{
				"baseColorFactor":[
					0.10456402599811554,
					0.10456402599811554,
					0.10456402599811554,
					1
				],
				"metallicFactor":0,
				"roughnessFactor":0.5
			}
		},
		{
			"doubleSided":true,
			"emissiveFactor":[
				1,
				1,
				1
			],
			"emissiveTexture":{
				"extensions":{
					"KHR_texture_transform":{
						"offset":[
							0,
							-1.000000238418579
						],
						"scale":[
							32.00000762939453,
							2.000000238418579
						]
					}
				},
				"index":0
			},
			"name":"wall_texture",
			"normalTexture":{
				"extensions":{
					"KHR_texture_transform":{
						"offset":[
							0,
							-1.000000238418579
						],
						"scale":[
							32.00000762939453,
							2.000000238418579
						]
					}
				},
				"index":1
			},
			"pbrMetallicRoughness":{
				"baseColorTexture":{
					"extensions":{
						"KHR_texture_transform":{
							"offset":[
								0,
								-1.000000238418579
							],
							"scale":[
								32.00000762939453,
								2.000000238418579
							]
						}
					},
					"index":2
				},
				"metallicFactor":0,
				"roughnessFactor":0.5
			}
		},
		{
			"doubleSided":true,
			"name":"floor",
			"normalTexture":{
				"extensions":{
					"KHR_texture_transform":{
						"offset":[
							0,
							-19
						],
						"scale":[
							20,
							20
						]
					}
				},
				"index":3
			},
			"pbrMetallicRoughness":{
				"baseColorTexture":{
					"extensions":{
						"KHR_texture_transform":{
							"offset":[
								0,
								-19
							],
							"scale":[
								20,
								20
							]
						}
					},
					"index":4
				},
				"metallicFactor":0,
				"roughnessFactor":0.5
			}
		},
		{
			"doubleSided":true,
			"emissiveFactor":[
				0.7605199217796326,
				0.7605253458023071,
				0.10224191844463348
			],
			"name":"floor_emission",
			"pbrMetallicRoughness":{
				"baseColorFactor":[
					0,
					0,
					0,
					1
				]
			}
		}
	],
	"meshes":[
		{
			"name":"Cylinder.001",
			"primitives":[
				{
					"attributes":{
						"POSITION":0,
						"NORMAL":1,
						"TEXCOORD_0":2
					},
					"indices":3,
					"material":0
				},
				{
					"attributes":{
						"POSITION":4,
						"NORMAL":5,
						"TEXCOORD_0":6
					},
					"indices":7,
					"material":1
				},
				{
					"attributes":{
						"POSITION":8,
						"NORMAL":9,
						"TEXCOORD_0":10
					},
					"indices":11,
					"material":2
				},
				{
					"attributes":{
						"POSITION":12,
						"NORMAL":13,
						"TEXCOORD_0":14
					},
					"indices":15,
					"material":3
				}
			]
		}
	],
	"textures":[
		{
			"sampler":0,
			"source":0
		},
		{
			"sampler":0,
			"source":1
		},
		{
			"sampler":0,
			"source":0
		},
		{
			"sampler":0,
			"source":2
		},
		{
			"sampler":0,
			"source":3
		}
	],
	"images":[
		{
			"mimeType":"image/png",
			"name":"tile_color_5",
			"uri":"tile_color_5.png"
		},
		{
			"mimeType":"image/png",
			"name":"tile_normal_5",
			"uri":"tile_normal_5.png"
		},
		{
			"mimeType":"image/png",
			"name":"tile_normal_0",
			"uri":"tile_normal_0.png"
		},
		{
			"mimeType":"image/png",
			"name":"tile_color_0",
			"uri":"tile_color_0.png"
		}
	],
	"accessors":[
		{
			"bufferView":0,
			"componentType":5126,
			"count":16,
			"max":[
				2,
				-0.20000000298023224,
				2
			],
			"min":[
				-2,
				-0.20000000298023224,
				-2
			],
			"type":"VEC3"
		},
		{
			"bufferView":1,
			"componentType":5126,
			"count":16,
			"type":"VEC3"
		},
		{
			"bufferView":2,
			"componentType":5126,
			"count":16,
			"type":"VEC2"
		},
		{
			"bufferView":3,
			"componentType":5123,
			"count":42,
			"type":"SCALAR"
		},
		{
			"bufferView":4,
			"componentType":5126,
			"count":64,
			"max":[
				2,
				0.20000000298023224,
				2
			],
			"min":[
				-2,
				-0.20000000298023224,
				-2
			],
			"type":"VEC3"
		},
		{
			"bufferView":5,
			"componentType":5126,
			"count":64,
			"type":"VEC3"
		},
		{
			"bufferView":6,
			"componentType":5126,
			"count":64,
			"type":"VEC2"
		},
		{
			"bufferView":7,
			"componentType":5123,
			"count":96,
			"type":"SCALAR"
		},
		{
			"bufferView":8,
			"componentType":5126,
			"count":48,
			"max":[
				2,
				0.20000000298023224,
				2
			],
			"min":[
				-2,
				0.20000000298023224,
				-2
			],
			"type":"VEC3"
		},
		{
			"bufferView":9,
			"componentType":5126,
			"count":48,
			"type":"VEC3"
		},
		{
			"bufferView":10,
			"componentType":5126,
			"count":48,
			"type":"VEC2"
		},
		{
			"bufferView":11,
			"componentType":5123,
			"count":138,
			"type":"SCALAR"
		},
		{
			"bufferView":12,
			"componentType":5126,
			"count":32,
			"max":[
				1.796081781387329,
				0.20000000298023224,
				1.796081781387329
			],
			"min":[
				-1.796081781387329,
				0.20000000298023224,
				-1.796081781387329
			],
			"type":"VEC3"
		},
		{
			"bufferView":13,
			"componentType":5126,
			"count":32,
			"type":"VEC3"
		},
		{
			"bufferView":14,
			"componentType":5126,
			"count":32,
			"type":"VEC2"
		},
		{
			"bufferView":15,
			"componentType":5123,
			"count":96,
			"type":"SCALAR"
		}
	],
	"bufferViews":[
		{
			"buffer":0,
			"byteLength":192,
			"byteOffset":0,
			"target":34962
		},
		{
			"buffer":0,
			"byteLength":192,
			"byteOffset":192,
			"target":34962
		},
		{
			"buffer":0,
			"byteLength":128,
			"byteOffset":384,
			"target":34962
		},
		{
			"buffer":0,
			"byteLength":84,
			"byteOffset":512,
			"target":34963
		},
		{
			"buffer":0,
			"byteLength":768,
			"byteOffset":596,
			"target":34962
		},
		{
			"buffer":0,
			"byteLength":768,
			"byteOffset":1364,
			"target":34962
		},
		{
			"buffer":0,
			"byteLength":512,
			"byteOffset":2132,
			"target":34962
		},
		{
			"buffer":0,
			"byteLength":192,
			"byteOffset":2644,
			"target":34963
		},
		{
			"buffer":0,
			"byteLength":576,
			"byteOffset":2836,
			"target":34962
		},
		{
			"buffer":0,
			"byteLength":576,
			"byteOffset":3412,
			"target":34962
		},
		{
			"buffer":0,
			"byteLength":384,
			"byteOffset":3988,
			"target":34962
		},
		{
			"buffer":0,
			"byteLength":276,
			"byteOffset":4372,
			"target":34963
		},
		{
			"buffer":0,
			"byteLength":384,
			"byteOffset":4648,
			"target":34962
		},
		{
			"buffer":0,
			"byteLength":384,
			"byteOffset":5032,
			"target":34962
		},
		{
			"buffer":0,
			"byteLength":256,
			"byteOffset":5416,
			"target":34962
		},
		{
			"buffer":0,
			"byteLength":192,
			"byteOffset":5672,
			"target":34963
		}
	],
	"samplers":[
		{
			"magFilter":9729,
			"minFilter":9987
		}
	],
	"buffers":[
		{
			"byteLength":5864,
			"uri":"portal.bin"
		}
	]
}
